:FULLY-SPECIFIED
:FORCE-ALL-JOINTS-BE-3DOF
:DEGREES
485
root 10.8072 17.1985 31.68 5.07965 3.78403 4.45198
lfemur 9.88932 2.22217 -29.0595
ltibia 2.27319 -0 0
lfoot -14.1949 5.24684 0.0152939
ltoes 0.395391 -0 0
rfemur -38.8547 12.1298 8.96509
rtibia 27.8381 -0 0
rfoot -22.5448 -6.90979 0.330496
rtoes -15.3758 0 0
lowerback -5.44559 -4.28433 -4.75169
upperback -0.764354 -5.4595 1.28941
thorax 2.86007 -2.78222 3.53208
lowerneck -21.2323 -2.3784 -9.55936
upperneck 24.9508 -2.98952 9.95946
head 12.0408 -0.966386 4.91182
lclavicle 5.6457e-15 -1.2644e-14 -7.07284e-32
lhumerus -14.7832 -21.4765 85.9301
lradius 33.754 -0 0
lwrist 7.25386 0 0
lhand -15.8593 -26.1418 0.0152568
lfingers 7.12502 -0 0
lthumb 10.3354 3.57366 0.0123148
rclavicle 5.6457e-15 -1.2644e-14 -7.07284e-32
rhumerus -50.3521 8.61503 -86.2354
rradius 36.7308 -0 0
rwrist -19.2757 0 0
rhand -30.9835 -23.1776 -0.0226214
rfingers 7.12502 -0 0
rthumb -4.26717 -53.1111 -0.0219756
486
root 10.8157 17.2026 31.8063 5.03337 3.86994 4.55641
lfemur 10.7515 2.26863 -29.1651
ltibia 1.70489 -0 0
lfoot -14.3841 5.20632 0.0116711
ltoes 0.310143 -0 0
rfemur -39.7521 12.2268 8.65751
rtibia 27.7832 -0 0
rfoot -23.1729 -7.16557 0.252058
rtoes -15.3215 0 0
lowerback -5.40257 -4.40477 -4.82099
upperback -0.73204 -5.61815 1.28854
thorax 2.88362 -2.86286 3.55677
lowerneck -21.271 -2.30324 -9.47461
upperneck 24.9964 -2.89393 9.90223
head 12.0486 -0.922291 4.8915
lclavicle 5.48289e-15 -1.28624e-14 -5.39769e-32
lhumerus -14.1819 -21.7674 85.7767
lradius 34.001 -0 0
lwrist 7.46167 0 0
lhand -15.9965 -26.1976 0.011643
lfingers 7.12502 -0 0
lthumb 10.2031 3.52693 0.00939787
rclavicle 5.48289e-15 -1.28624e-14 -5.39769e-32
rhumerus -50.5188 8.6173 -86.1806
rradius 36.8368 -0 0
rwrist -19.3798 0 0
rhand -31.0663 -23.0406 -0.0172631
rfingers 7.12502 -0 0
rthumb -4.34718 -52.9733 -0.0167703
487
root 10.8243 17.2067 31.9327 4.98724 3.95593 4.66077
lfemur 11.6136 2.31667 -29.2699
ltibia 1.13659 -0 0
lfoot -14.5734 5.16582 0.00791444
ltoes 0.224895 -0 0
rfemur -40.6505 12.3191 8.3483
rtibia 27.7283 -0 0
rfoot -23.8006 -7.42048 0.170822
rtoes -15.2671 0 0
lowerback -5.35939 -4.52515 -4.8904
upperback -0.699715 -5.77681 1.28757
thorax 2.90714 -2.94351 3.58143
lowerneck -21.3095 -2.22803 -9.38993
upperneck 25.0419 -2.7983 9.84507
head 12.0564 -0.878193 4.87119
lclavicle 5.32008e-15 -1.30807e-14 -3.6605e-32
lhumerus -13.5785 -22.0569 85.6196
lradius 34.2481 -0 0
lwrist 7.66947 0 0
lhand -16.1337 -26.2534 0.00789559
lfingers 7.12502 -0 0
lthumb 10.0709 3.4802 0.00637309
rclavicle 5.32008e-15 -1.30807e-14 -3.6605e-32
rhumerus -50.6855 8.61972 -86.1257
rradius 36.9428 -0 0
rwrist -19.4838 0 0
rhand -31.1492 -22.9036 -0.0117067
rfingers 7.12502 -0 0
rthumb -4.42718 -52.8356 -0.0113725
488
root 10.8328 17.2108 32.059 4.94126 4.042 4.76508
lfemur 12.4757 2.36629 -29.374
ltibia 0.568297 -0 0
lfoot -14.7626 5.12533 0.00402407
ltoes 0.139647 -0 0
rfemur -41.5496 12.4066 8.03754
rtibia 27.6733 -0 0
rfoot -24.428 -7.67448 0.0867986
rtoes -15.2128 0 0
lowerback -5.31606 -4.64547 -4.9599
upperback -0.667378 -5.93547 1.28652
thorax 2.93063 -3.02417 3.60605
lowerneck -21.348 -2.15275 -9.3053
upperneck 25.0874 -2.70263 9.788
head 12.0641 -0.834092 4.85089
lclavicle 5.15727e-15 -1.32991e-14 -1.86127e-32
lhumerus -12.973 -22.3447 85.459
lradius 34.4952 -0 0
lwrist 7.87728 0 0
lhand -16.271 -26.3091 0.00401458
lfingers 7.12502 -0 0
lthumb 9.93862 3.43348 0.00324046
rclavicle 5.15727e-15 -1.32991e-14 -1.86127e-32
rhumerus -50.8523 8.6223 -86.0708
rradius 37.0487 -0 0
rwrist -19.5879 0 0
rhand -31.232 -22.7667 -0.00595235
rfingers 7.12502 -0 0
rthumb -4.50717 -52.6978 -0.00578243
489
root 10.8414 17.2149 32.1854 4.89543 4.12816 4.86933
lfemur 13.3377 2.41746 -29.4774
ltibia 4.77083e-14 0 0
lfoot -14.9518 5.08485 0
ltoes 0.054399 0 0
rfemur -42.4495 12.4893 7.72531
rtibia 27.6184 0 0
rfoot -25.055 -7.92754 0
rtoes -15.1585 0 0
lowerback -5.27258 -4.76575 -5.02951
upperback -0.635028 -6.09412 1.28538
thorax 2.95408 -3.10484 3.63065
lowerneck -21.3863 -2.07742 -9.22072
upperneck 25.1327 -2.60691 9.73101
head 12.0719 -0.789989 4.83059
lclavicle 4.99446e-15 -1.35174e-14 0
lhumerus -12.3654 -22.631 85.2947
lradius 34.7423 0 0
lwrist 8.08508 0 0
lhand -16.4082 -26.3649 0
lfingers 7.12502 0 0
lthumb 9.80637 3.38677 0
rclavicle 4.99446e-15 -1.35174e-14 0
rhumerus -51.019 8.62504 -86.016
rradius 37.1547 0 0
rwrist -19.692 0 0
rhand -31.3148 -22.6297 0
rfingers 7.12502 0 0
rthumb -4.58714 -52.56 0
490
root 10.8291 17.1975 32.3432 5.08695 4.22493 4.10242
lfemur 13.7435 2.32451 -28.5693
ltibia -1.59028e-14 0 0
lfoot -15.3056 5.19183 0
ltoes -0.817474 0 0
rfemur -42.8592 13.1051 8.25337
rtibia 27.2609 0 0
rfoot -26.3634 -7.80422 0
rtoes -10.4602 0 0
lowerback -5.47581 -4.81126 -4.16326
upperback -0.799 -6.20263 1.45992
thorax 2.83631 -3.14435 3.31369
lowerneck -21.2312 -1.96175 -8.96435
upperneck 25.1503 -2.52611 9.65891
head 12.0332 -0.741343 4.76966
lclavicle -6.05548e-14 -7.95139e-15 0
lhumerus -13.1549 -23.5597 85.6502
lradius 34.7662 0 0
lwrist 7.01475 0 0
lhand -18.3446 -26.553 0
lfingers 7.12502 0 0
lthumb 7.93772 3.27795 0
rclavicle -6.05548e-14 -7.95139e-15 0
rhumerus -51.4198 8.39057 -85.9952
rradius 37.0497 0 0
rwrist -19.4243 0 0
rhand -30.8652 -23.2524 0
rfingers 7.12502 0 0
rthumb -4.15293 -53.1917 0
491
root 10.8197 17.1754 32.49 5.07714 4.36803 4.19975
lfemur 14.3239 2.15586 -28.5283
ltibia -1.27222e-14 0 0
lfoot -15.7199 4.76682 0
ltoes 0.736164 0 0
rfemur -43.0289 13.0221 8.16206
rtibia 27.0895 0 0
rfoot -28.1317 -5.55512 0
rtoes 3.96549 0 0
lowerback -5.47172 -4.86636 -4.21741
upperback -0.747238 -6.27137 1.41672
thorax 2.89491 -3.18083 3.28986
lowerneck -21.7717 -2.07993 -8.70482
upperneck 25.5041 -2.67059 9.33871
head 12.2892 -0.813639 4.59769
lclavicle -3.9583e-14 -1.59028e-14 0
lhumerus -13.2526 -23.5803 85.7653
lradius 35.1953 0 0
lwrist 8.03821 0 0
lhand -17.2012 -26.4176 0
lfingers 7.12502 0 0
lthumb 9.04121 3.36863 0
rclavicle -3.9583e-14 -1.59028e-14 0
rhumerus -51.3894 7.88373 -85.7002
rradius 36.8539 0 0
rwrist -18.9196 0 0
rhand -30.1226 -23.926 0
rfingers 7.12502 0 0
rthumb -3.43583 -53.8781 0
492
root 10.7902 17.1545 32.652 4.93668 4.91302 4.85644
lfemur 15.1142 1.56404 -28.9671
ltibia -3.49861e-14 0 0
lfoot -15.9093 4.51657 0
ltoes 1.59236 0 0
rfemur -42.9826 13.8763 6.89539
rtibia 27.0925 0 0
rfoot -29.6453 -6.92006 0
rtoes 5.28663 0 0
lowerback -5.62611 -5.1148 -5.07519
upperback -0.433362 -6.5327 1.21222
thorax 3.40321 -3.33599 3.4922
lowerneck -21.8805 -2.21403 -9.19962
upperneck 25.1859 -2.89123 10.1282
head 12.2328 -0.853693 4.9453
lclavicle -6.85559e-14 8.74653e-15 0
lhumerus -13.3141 -24.1476 85.7667
lradius 35.2981 0 0
lwrist 7.49426 0 0
lhand -17.5278 -26.4209 0
lfingers 7.12502 0 0
lthumb 8.72608 3.37875 0
rclavicle -6.85559e-14 8.74653e-15 0
rhumerus -51.085 7.61174 -85.6532
rradius 36.5206 0 0
rwrist -18.712 0 0
rhand -29.4803 -23.8632 0
rfingers 7.12502 0 0
rthumb -2.81555 -53.8244 0
493
root 10.7692 17.1252 32.8072 4.76472 4.94658 5.37601
lfemur 15.9068 1.5002 -29.3704
ltibia 3.18055e-15 0 0
lfoot -16.0397 4.53304 0
ltoes 2.7512 0 0
rfemur -42.8989 14.0455 6.41316
rtibia 27.1984 0 0
rfoot -29.5052 -8.51367 0
rtoes 1.05049 0 0
lowerback -5.86816 -5.22708 -5.73792
upperback -0.0103376 -6.61241 1.05328
thorax 4.04511 -3.40765 3.63648
lowerneck -22.5464 -2.37369 -9.88009
upperneck 25.3748 -3.1327 11.1477
head 12.5032 -0.882602 5.4492
lclavicle 2.62644e-14 2.22639e-14 0
lhumerus -13.2933 -24.3359 85.7679
lradius 35.2327 0 0
lwrist 6.44089 0 0
lhand -14.6144 -26.2799 0
lfingers 7.12502 0 0
lthumb 11.5366 3.38255 0
rclavicle 2.62644e-14 2.22639e-14 0
rhumerus -50.5862 7.57269 -85.6711
rradius 36.0246 0 0
rwrist -18.709 0 0
rhand -28.9855 -23.1828 0
rfingers 7.12502 0 0
rthumb -2.3377 -53.1497 0
